<svg width="152" height="150" viewBox="0 0 152 150" fill="none" xmlns="http://www.w3.org/2000/svg">
<rect x="56.3047" y="62.3564" width="6.44444" height="27.3889" fill="#6D2DDD"/>
<rect x="65.4336" y="62.3564" width="6.44444" height="17.1852" fill="#6D2DDD"/>
<rect x="74.5635" y="62.3564" width="6.44444" height="27.3889" fill="#6D2DDD"/>
<rect x="83.6934" y="68.8008" width="6.44444" height="12.8889" transform="rotate(-90 83.6934 68.8008)" fill="#6D2DDD"/>
<path d="M105.025 140.226L104.421 140.466C103.814 139.497 102.467 138.475 100.58 137.907C99.6599 137.594 98.822 137.458 98.0436 137.47L97.9088 136.944C99.2341 136.226 100.3 134.846 100.664 133.297C100.826 132.501 100.842 131.781 100.687 131.091L101.124 130.905C101.824 132.066 103.284 133.018 104.902 133.342C105.728 133.455 106.491 133.404 107.207 133.185L107.484 133.662C106.349 134.646 105.341 136.592 105.076 138.182C104.914 138.978 104.899 139.656 105.025 140.226Z" fill="#7D00EB"/>
<path d="M128.607 128.001L130.425 126.181C130.425 126.181 127.176 123.055 123.898 119.951C120.636 116.844 117.361 113.755 117.361 113.755L115.976 115.14C115.976 115.14 119.128 118.364 122.292 121.57C125.456 124.776 128.607 128.001 128.607 128.001ZM135.611 120.232L137.105 118.258L131.193 114.021C129.048 112.493 128.514 110.583 129.685 108.828C130.753 107.141 132.245 106.927 134.039 107.963L141.184 112.096L142.387 109.962L134.811 105.904C132.159 104.482 129.785 105.014 128.368 107.333C127.329 108.902 127.36 110.477 128.052 111.789L127.999 111.863L126.247 110.787L125.179 112.197C125.179 112.197 127.789 114.214 130.411 116.212C132.999 118.2 135.611 120.232 135.611 120.232ZM145.931 102.542L146.819 100.3L136.124 96.3689L137.124 93.4552L135.399 92.912L134.42 95.7568L132.273 94.9622C131.056 94.4926 130.575 93.6323 130.95 92.5885C131.083 92.2229 131.264 91.8489 131.445 91.5724L129.702 91.0162C129.487 91.3801 129.301 91.7225 129.118 92.276C128.43 94.1571 129.445 95.9009 131.555 96.7671L133.679 97.6147L132.816 99.6244L134.475 100.358L135.359 98.2798L145.931 102.542ZM149.661 90.9513L150.162 88.5656C150.162 88.5656 145.46 87.6511 140.762 86.7525C136.047 85.8566 131.364 84.9552 131.364 84.9552L130.971 86.7354C130.971 86.7354 135.65 87.8005 140.309 88.8526C144.966 89.889 149.661 90.9513 149.661 90.9513ZM138.324 72.3711L146.358 72.1276C148.483 72.0464 149.84 73.029 149.844 75.5702C149.747 78.0966 148.345 79.0117 146.252 78.8921L138.214 78.3704L138.012 80.3939L146.398 81.2127C149.409 81.4965 151.622 79.2161 151.775 75.6045C151.762 71.9895 149.651 69.6244 146.625 69.8158L138.215 70.3536L138.324 72.3711ZM149.763 56.7325C148.975 53.6616 146.651 51.6762 144.233 52.0535L144.916 54.2469C146.346 54.2392 147.431 55.3515 147.871 57.1965C148.467 59.8288 147.021 61.5176 144.564 61.9508L142.142 52.5039L141.116 52.8476C137.632 53.9834 135.562 56.6131 136.449 59.9601C137.212 63.6382 140.484 64.935 144.288 64.3948C148.12 63.833 150.676 61.0687 149.763 56.7325ZM142.758 62.2529C140.702 62.534 138.865 61.8152 138.357 59.4933C137.775 57.3147 139.063 55.8492 141.095 55.2465L142.758 62.2529ZM145.518 44.6904L144.525 42.4213L137.882 45.5153C135.482 46.6393 133.542 46.1828 132.575 44.333C131.605 42.565 132.153 41.1974 133.94 40.1329L141.064 35.9438L139.759 33.8602L132.51 38.4623C129.935 40.0896 129.226 42.4142 130.61 44.7609C131.478 46.4165 132.884 47.1136 134.386 47.1421L134.44 47.2629L132.643 48.2641L133.337 49.8689C133.337 49.8689 136.399 48.5793 139.427 47.2796C142.471 45.9771 145.518 44.6904 145.518 44.6904ZM132.065 23.5341C129.368 20.7347 126.62 20.7304 124.512 22.5848L126.186 24.1472C127.57 23.0396 129.204 23.2566 130.68 24.8211C132.658 27.0795 131.735 29.3114 129.573 31.045C127.473 32.7515 125.11 33.3473 123.388 31.4187C122.116 30.0788 122.069 28.5066 123.217 27.1799L121.653 25.6797C119.946 27.7566 119.666 30.3642 121.939 32.717C124.333 35.4721 127.676 35.3063 130.988 32.816C134.313 30.3071 135.016 26.9244 132.065 23.5341ZM118.204 11.721C115.518 10.0114 112.424 10.1006 110.9 11.9987L112.914 13.1589C113.974 12.1736 115.522 12.2755 117.136 13.3107C119.369 14.8723 119.458 17.0563 117.95 19.0492L109.694 13.743L109.169 14.6829C107.394 17.8636 107.668 21.1881 110.606 23.0164C113.706 25.2071 117.006 23.9572 119.411 20.9912C121.862 18.0011 121.83 14.2754 118.204 11.721ZM116.819 20.4707C115.506 22.071 113.658 22.7878 111.706 21.4211C109.766 20.2152 109.719 18.2683 110.8 16.4647L116.819 20.4707ZM106.807 5.76303L104.534 4.81151L102.104 10.7147C100.928 13.5617 99.233 14.7729 96.9716 13.9822L96.0265 13.6601L95.3841 15.6145L96.4146 15.9542C97.8537 16.4663 99.3311 16.0754 100.36 14.9163L100.465 14.9468L99.7834 17.0548L101.402 17.7469C101.402 17.7469 102.747 14.7398 104.098 11.7643C105.462 8.77017 106.807 5.76303 106.807 5.76303ZM88.9926 0.170751C85.7644 -0.319118 82.9666 0.793296 82.7297 3.18138C82.4893 5.45605 83.7013 6.54582 86.1793 7.44498L88.1791 8.15145C89.5677 8.65613 90.2897 9.39238 90.074 10.4081C89.8016 11.6618 88.6093 12.0839 87.0788 11.7998C85.5378 11.5501 84.4389 10.6359 84.5911 8.97966L82.5097 8.74377C82.2292 11.3514 84.0329 13.1841 86.7679 13.5817C89.4454 14.1199 91.5376 13.0177 92.1146 10.8792C92.5898 9.00312 91.675 7.45357 89.562 6.57153L86.9424 5.61584C85.4977 5.07219 84.9671 4.30218 85.0775 3.43544C85.2355 2.18555 86.5928 1.76701 88.6215 2.07734C90.696 2.46106 91.9539 3.62423 91.5521 5.35705L93.8037 5.90507C94.487 3.06351 92.4674 0.845277 88.9926 0.170751ZM29.747 16.255L27.8446 17.7798C27.8446 17.7798 30.1616 20.5649 32.5105 23.3443C34.8115 26.1322 37.1417 28.8986 37.1417 28.8986L37.0731 28.9759C37.0731 28.9759 34.0628 27.7632 30.9791 26.6939C27.8136 25.7204 24.5905 24.8874 24.5905 24.8874L24.3632 25.0905C24.3632 25.0905 25.2507 28.2579 26.2255 31.3611C27.3675 34.3859 28.5809 37.3493 28.5809 37.3493L28.5123 37.4265C28.5123 37.4265 25.6962 35.1694 22.8641 32.9151C20.048 30.658 17.2291 28.3852 17.2291 28.3852L15.7237 30.2963C15.7237 30.2963 19.3449 33.0143 22.9473 35.7193C26.5657 38.4215 30.1682 41.1265 30.1682 41.1265L31.571 39.3802L27.2413 27.7929L27.3072 27.6998L39.0475 31.8702L40.8363 30.4468C40.8363 30.4468 38.0553 26.8963 35.2931 23.3588C32.528 19.8055 29.747 16.255 29.747 16.255ZM8.32493 41.6053C6.93886 44.473 7.37255 47.4923 9.50742 48.7779L10.38 46.6362C9.29707 45.7192 9.1919 44.1898 10.0543 42.4572C11.3457 40.0787 13.537 39.7249 15.6982 40.9732L11.368 49.7207L12.3777 50.1293C15.7564 51.4725 19.0609 50.8084 20.5356 47.6969C22.3681 44.3757 20.7384 41.2903 17.4715 39.2756C14.1859 37.2479 10.438 37.7295 8.32493 41.6053ZM17.2577 41.8877C19.0129 42.9795 19.9396 44.6899 18.8034 46.8292C17.826 48.8427 15.8553 49.1413 13.9476 48.3045L17.2577 41.8877ZM2.01412 58.8978C1.33307 62.0323 2.54016 64.8664 4.87023 65.5798L5.25983 63.3115C3.92878 62.6663 3.47263 61.1988 3.88405 59.3339C4.5398 56.7091 6.59127 55.8422 8.99832 56.5258L6.96146 66.0583L7.99037 66.2028C11.6474 66.6985 14.6849 65.2668 15.3561 61.8897C16.3233 58.2323 13.9572 55.6351 10.3295 54.4661C6.61643 53.2796 3.12309 54.6451 2.01412 58.8978ZM10.7489 57.0318C12.7029 57.6649 14.0513 59.1543 13.4543 61.4592C13.0028 63.657 11.1636 64.4212 9.1106 64.0663L10.7489 57.0318ZM0.097022 76.5725C0.115051 77.5144 0.22241 78.3102 0.337905 78.7786L2.19569 78.6791L2.19339 78.3863C2.11134 78.1074 2.00419 77.6864 1.99605 76.9872C1.99929 75.6994 2.55107 75.097 3.81852 75.1016L11.7215 75.142L11.7564 78.2317L13.6009 78.1508L13.5482 75.1458L17.0897 75.1731L17.0985 74.9434L16.4438 73.2828L13.5966 73.182L13.7082 71.1093L11.8753 70.9762L11.7693 73.0805L3.68849 72.7782C1.48025 72.6625 0.119152 73.6194 0.097022 76.5725ZM25.937 130.853L27.907 132.51C27.907 132.51 30.4362 129.408 33.0029 126.332C35.5508 123.243 38.0987 120.155 38.0987 120.155L42.1106 123.13L43.277 121.441C43.277 121.441 40.9205 119.739 38.6618 117.937C36.4793 116.008 34.4133 113.994 34.4133 113.994L32.9228 115.43L36.5334 118.834C36.5334 118.834 33.8918 121.858 31.2314 124.869C28.571 127.88 25.937 130.853 25.937 130.853ZM40.349 140.94C43.2172 142.373 46.2708 141.965 47.6019 139.905L45.4618 138.963C44.5142 140.026 42.9679 140.12 41.2489 139.233C38.8636 137.927 38.5457 135.75 39.831 133.617L48.6044 138.034L49.0255 137.064C50.4716 133.697 49.8441 130.418 46.7358 128.929C43.4274 127.052 40.2846 128.633 38.1849 131.838C36.0589 135.081 36.4792 138.771 40.349 140.94ZM40.8122 132.092C41.9383 130.362 43.7233 129.477 45.8171 130.623C47.838 131.635 48.1114 133.559 47.2289 135.458L40.8122 132.092ZM57.6832 147.448C61.5104 148.256 63.7966 146.761 64.5237 144.075L62.2279 143.648C61.7032 145.338 60.2206 146.072 58.1134 145.596C55.1998 144.839 54.7153 142.464 55.5333 139.827C56.3306 137.258 57.9569 135.472 60.4915 136.134C62.2574 136.539 63.2018 137.79 62.9998 139.537L65.1513 139.89C65.3943 137.257 64.1779 134.93 60.9508 134.26C57.4044 133.272 54.6961 135.265 53.3711 139.132C52.0066 143.055 53.3444 146.258 57.6832 147.448ZM70.2084 149.166L72.6831 149.3L72.9651 142.13C73.104 139.466 74.5271 137.928 76.5694 137.942C78.5791 137.865 79.6129 138.97 79.733 141.051L80.2204 149.226L82.6872 149.035L81.9124 140.536C81.6466 137.536 79.8389 135.867 77.1133 135.989C75.2069 135.999 73.9547 136.921 73.2487 138.235L73.1502 138.236L73.4983 130.321L71.6522 130.206C71.6522 130.206 71.3032 134.944 70.9383 139.685C70.5865 144.407 70.2084 149.166 70.2084 149.166Z" fill="#7D00EB"/>
<path d="M56.6933 5.92835L57.3009 5.76348C57.8121 6.78658 59.0057 7.92842 60.8118 8.69844C61.6629 9.11735 62.4722 9.34572 63.2358 9.40898L63.3063 9.94906C61.9229 10.4981 60.7359 11.7382 60.1883 13.2283C59.9501 13.9877 59.8506 14.6897 59.9237 15.386L59.4765 15.5225C58.9301 14.2995 57.611 13.1962 56.0523 12.7042C55.2567 12.5064 54.4893 12.4685 53.7784 12.6104L53.557 12.1052C54.7971 11.2598 55.9737 9.44439 56.4166 7.92322C56.6694 7.15298 56.7533 6.50324 56.6933 5.92835Z" fill="#7D00EB"/>
<path d="M10.3267 105.888L10.0805 105.301C11.0328 104.662 12.024 103.293 12.5658 101.372C12.8582 100.463 12.9856 99.6164 12.9384 98.8258L13.4761 98.6889C14.2291 100.011 15.635 101.042 17.2052 101.387C18.0253 101.52 18.7299 101.522 19.4221 101.358L19.6151 101.786C18.46 102.511 17.5311 103.996 17.2485 105.627C17.144 106.461 17.2112 107.223 17.445 107.93L16.9834 108.213C15.965 107.098 13.9841 106.135 12.3838 105.904C11.5719 105.77 10.882 105.757 10.3267 105.888Z" fill="#7D00EB"/>
</svg>
