<svg width="272" height="212" viewBox="0 0 272 212" fill="none" xmlns="http://www.w3.org/2000/svg">
<path fill-rule="evenodd" clip-rule="evenodd" d="M1.78111 36.5841C1.51064 41.0638 1.28906 51.81 1.28906 60.4648V76.1996H4.60582H7.92182L8.42381 59.3773C9.17258 34.2885 9.09465 29.0345 7.97454 28.9347C7.44964 28.8883 5.95133 28.7576 4.64632 28.6447L2.27393 28.439L1.78111 36.5841ZM11.6237 28.9866C11.4013 29.3516 10.9926 40.1233 10.7152 52.9245L10.2109 76.1996H13.2725H16.3341L16.8315 66.3383C17.1042 60.9149 17.3296 53.1999 17.3312 49.1934C17.3327 45.1878 17.4916 42.0701 17.6849 42.265C17.8775 42.4606 19.4468 48.3481 21.1713 55.3493C22.8965 62.3504 24.8265 69.9061 25.4599 72.1391L26.6114 76.1996H29.8823H33.1532L33.6437 69.8187C33.9134 66.3097 34.1365 55.6942 34.1388 46.2288L34.1434 29.0198H31.0872H28.031V42.0391C28.031 49.2004 27.8041 55.2889 27.5267 55.5697C27.2493 55.8504 25.5043 50.0821 23.6491 42.7507C21.7948 35.4193 20.2162 29.3795 20.1429 29.3284C19.3521 28.787 11.9278 28.4892 11.6237 28.9866ZM36.9223 30.7399C36.6663 31.7083 36.4516 42.333 36.4463 54.35L36.4356 76.1996H39.8738H43.3121V66.5316V56.8636H48.2784H53.2448V53.7699V50.6761L49.9976 50.6653C43.1814 50.6436 43.1577 50.6142 43.4695 42.6424L43.7453 35.5941L50.0235 35.3698L56.301 35.1447V55.5821V76.0194L58.0201 76.4858C58.9653 76.7418 63.2631 76.9568 67.5708 76.9622L75.4024 76.9731V73.8793V70.7855H69.1807H62.9582L63.2593 50.096L63.5595 29.4065L50.4743 29.1931C37.4243 28.9796 37.3868 28.9842 36.9223 30.7399ZM75.9021 36.1741C75.6324 39.6832 75.4108 48.8199 75.41 56.4769C75.4085 69.0809 75.5544 70.6409 76.9504 72.9589C80.9739 79.6391 92.5241 79.0095 95.9516 71.9233C96.7455 70.282 97.1145 64.6212 97.3972 49.7565L97.7762 29.7933H94.2669H90.7568L90.5291 49.5794C90.3152 68.1504 90.2098 69.4328 88.8131 70.4661C87.9948 71.0709 86.6195 71.3556 85.7569 71.098C82.1986 70.0345 82.1001 69.3299 82.6617 48.9359L83.1889 29.7933H79.7911H76.3926L75.9021 36.1741ZM99.5435 53.0807C99.2447 65.8889 99.2057 76.5763 99.4564 76.83C99.707 77.0837 104.197 77.4356 109.433 77.6127L118.954 77.9329V74.7463C118.954 72.7741 118.589 71.5141 117.998 71.4422C114.881 71.0609 113.593 70.9712 109.976 70.883L105.965 70.7855V63.8246V56.8636H111.357H116.749L116.514 53.5765C116.307 50.6692 116.059 50.2824 114.369 50.2283C113.319 50.195 111.17 50.1076 109.594 50.0349L106.729 49.9027V42.8505V35.7975L113.223 36.3451L119.718 36.8934V33.8445V30.7956L113.414 30.2991C109.948 30.0261 105.531 29.8002 103.599 29.7979L100.087 29.7933L99.5435 53.0807ZM121.246 41.2711C121.246 47.1585 121.02 57.774 120.744 64.861L120.242 77.7465H123.418C125.165 77.7465 126.637 77.3985 126.69 76.9731C126.742 76.5477 126.871 75.8516 126.976 75.4262C127.081 75.0008 127.21 67.8078 127.263 59.4415C127.315 51.076 127.586 44.4615 127.865 44.7431C128.143 45.0254 130.141 52.479 132.305 61.3078L136.239 77.3598L140.203 77.5934L144.167 77.8277V54.1968V30.5667H141.111H138.055L138.032 44.682C138.018 53.0699 137.739 58.3262 137.344 57.6371C136.978 56.999 135.423 51.2562 133.889 44.8753C132.354 38.4945 130.922 32.665 130.705 31.9202C130.388 30.8281 129.436 30.5667 125.779 30.5667H121.246V41.2711ZM149.597 32.5498C148.316 33.6411 146.916 35.816 146.486 37.3838C146.056 38.9516 145.702 47.4617 145.7 56.2952L145.695 72.3549L148.259 75.1864C150.562 77.731 151.28 78.0474 155.326 78.3011C160.616 78.6336 162.882 77.6491 165.347 73.9474C166.739 71.8552 167.089 70.2666 167.089 66.0304V60.7308H164.139H161.189L160.77 65.4001C160.186 71.9217 158.168 73.7625 154.05 71.5319C152.665 70.7817 152.572 69.7669 152.572 55.4614C152.572 38.4287 152.984 36.7542 157.173 36.7542C159.94 36.7542 160.977 38.5439 160.977 43.3223V46.8979L164.224 46.6597L167.471 46.4222L167.395 42.1606C167.25 34.1485 163.763 30.5667 156.106 30.5667C152.733 30.5667 151.476 30.9496 149.597 32.5498ZM169.801 31.5405C169.64 32.0687 169.308 42.8543 169.062 55.5101L168.614 78.5199H178.548H188.483V75.4571V72.3951L182.179 72.17C178.712 72.047 175.962 71.6843 176.067 71.3656C176.171 71.047 176.258 67.8271 176.258 64.2113V57.6371H181.224H186.19V54.5433V51.4496H181.224H176.258V44.4886V37.5277H182.752H189.247V34.4339V31.3401L182.179 31.2535C178.292 31.2063 173.982 31.0354 172.602 30.8745C171.051 30.6928 169.98 30.948 169.801 31.5405ZM190.775 54.93V78.5199H193.741C197.419 78.5199 197.627 77.9128 197.64 67.1117L197.651 59.184H199.943C204.299 59.184 205.292 61.2506 205.292 70.3161C205.292 79.1294 205.381 79.2934 210.166 79.2934H212.623L212.349 74.0727C212.149 70.2797 212.293 69.1691 212.873 70.0121C213.314 70.6502 213.678 71.9078 213.685 72.8073C213.712 76.6312 220.986 80.7389 225.702 79.5935C231.973 78.0706 234.326 74.9312 234.326 68.0862C234.326 62.8439 232.629 59.2079 228.186 54.93C222.9 49.8416 220.573 46.1569 220.573 42.8806C220.573 38.4024 223.238 36.4332 226.736 38.3282C227.76 38.8835 228.213 39.9508 228.213 41.8086C228.213 44.4793 228.226 44.4886 231.739 44.4886H235.263L234.731 40.8944C234.438 38.9175 233.797 36.6359 233.307 35.823C230.172 30.6278 220.992 29.7855 216.547 34.2854C214.474 36.3837 214.113 37.3614 213.846 41.5967C213.453 47.8446 215.382 52.2601 220.704 57.2999C225.323 61.6729 227.442 65.0172 227.446 67.9362C227.451 71.2844 226.15 73.1059 223.755 73.1059C220.885 73.1059 219.809 71.7988 219.809 68.3105V65.3715H216.347C212.786 65.3715 212.7 65.2926 211.813 61.2189C211.547 59.9984 210.555 58.3015 209.61 57.4491L207.89 55.8992L210.03 53.7335C211.706 52.0366 212.204 50.7612 212.333 47.8353C212.949 33.9033 210.671 31.3401 197.676 31.3401H190.775V54.93ZM203.332 38.2818C205.194 38.9987 205.292 39.3244 205.292 44.8011C205.292 51.4612 204.351 52.9964 200.271 52.9964H197.651V45.7779C197.651 41.8071 197.88 38.3266 198.161 38.0435C198.888 37.3064 201.057 37.4062 203.332 38.2818ZM49.4245 90.895V97.8559H57.441H65.4567L65.6546 140.588L65.8517 183.321L73.3012 183.542L80.7508 183.763V140.81V97.8559H88.7733H96.7959V90.895V83.934H73.1102H49.4245V90.895ZM190.43 88.8361C190.091 90.5052 186.908 126.386 185.41 145.422C184.976 150.953 183.991 162.264 183.224 170.559C182.457 178.854 181.89 185.725 181.965 185.827C182.145 186.074 196.394 187.559 196.593 187.351C196.679 187.262 197.592 177.868 198.622 166.477C199.652 155.086 200.687 145.572 200.921 145.334C201.523 144.726 216.37 145.866 217.563 146.612C218.36 147.11 218.227 150.751 216.871 165.661C215.948 175.799 215.2 185.196 215.209 186.542L215.224 188.99L221.146 189.519C224.402 189.81 227.755 190.101 228.595 190.165C229.858 190.262 230.16 189.743 230.332 187.188C230.447 185.487 231.21 176.959 232.028 168.239C232.847 159.518 234.402 141.768 235.485 128.794C236.567 115.819 237.727 102.245 238.063 98.6294C238.398 95.0135 238.569 91.9244 238.441 91.7651C237.998 91.209 224.346 89.9112 223.882 90.3806C223.495 90.7728 219.939 126.82 219.839 131.361C219.811 132.648 219.274 132.723 213.505 132.242C210.038 131.953 206.011 131.481 204.555 131.193C201.926 130.673 201.909 130.643 202.096 126.831C202.2 124.72 202.999 115.38 203.871 106.075C205.198 91.9167 205.287 89.0472 204.419 88.4904C203.848 88.1245 201.147 87.7927 198.415 87.754C195.684 87.7146 192.846 87.5661 192.109 87.4238C191.235 87.2544 190.652 87.7455 190.43 88.8361ZM147.784 90.1409C138.756 92.448 133.016 98.9078 131.508 108.459C130.945 112.021 133.111 161.409 134.24 170.743C135.905 184.514 142.575 190.814 155.628 190.943C166.415 191.051 173.023 187.611 177.131 179.748C178.704 176.738 178.933 175.077 179.179 164.87C179.332 158.55 179.167 153.096 178.813 152.75C178.458 152.404 175.136 152.317 171.431 152.557L164.694 152.994L164.937 162.488C165.157 171.142 165.037 172.173 163.572 174.17C161.506 176.987 156.784 178.161 153.624 176.642C149.342 174.586 148.994 172.637 147.575 142.882C146.124 112.435 146.236 107.792 148.482 105.52C151.831 102.13 159.264 103.019 161.306 107.053C161.867 108.163 162.576 112.29 162.879 116.225L163.431 123.379H167.064C169.061 123.379 172.232 123.166 174.11 122.906L177.523 122.432L177.232 116.138C176.445 99.1484 169.633 90.5987 156.209 89.7541C153.158 89.5623 149.367 89.7364 147.784 90.1409ZM87.9696 101.333C87.6998 102.244 83.8857 184.292 83.6909 193.376L83.5579 199.563L88.4578 200.051C91.1526 200.32 100.438 200.791 109.093 201.098L124.827 201.658L125.316 195.248C125.584 191.722 125.638 188.67 125.436 188.465C125.105 188.13 107.831 186.961 101.543 186.847L99.0315 186.801L99.4892 173.46C99.7406 166.121 100.082 159.421 100.249 158.569C100.539 157.08 100.94 157.041 110.661 157.557C116.222 157.852 121.05 157.92 121.391 157.707C121.731 157.494 122.01 154.426 122.01 150.89V144.46L111.378 143.906L100.747 143.352L101.141 135.879C101.358 131.77 101.758 125.448 102.031 121.833L102.526 115.258L110.167 115.459C114.369 115.571 120.258 115.857 123.252 116.097L128.696 116.532L129.246 109.847C129.549 106.169 129.664 103.026 129.501 102.862C128.75 102.101 88.1843 100.608 87.9696 101.333Z" fill="#7B00EA"/>
<path opacity="0.2" d="M32.8035 201.563C34.668 200.855 36.1712 199.176 36.6408 197.277L36.8357 196.488L37.0104 197.147C37.522 199.078 39.0415 200.832 40.7907 201.51L41.8958 201.938L40.355 202.719C38.6839 203.567 37.3893 205.12 37.0905 206.638L36.9251 207.476L36.4433 206.165C35.8311 204.5 34.4 203.042 32.818 202.472L31.583 202.027L32.8035 201.563Z" fill="#F3A100"/>
<path opacity="0.2" d="M251.195 15.5677C253.875 14.5682 256.036 12.1978 256.711 9.51625L256.991 8.40234L257.242 9.33282C257.978 12.0593 260.162 14.5351 262.676 15.4923L264.265 16.0968L262.05 17.1999C259.648 18.3963 257.787 20.5895 257.357 22.7316L257.12 23.9145L256.427 22.0636C255.547 19.7133 253.49 17.6552 251.216 16.8502L249.44 16.2219L251.195 15.5677Z" fill="#7B00EA"/>
<rect y="85.9634" width="41.8957" height="91.7805" fill="#FDC2FF"/>
<path d="M8.3459 112.151C6.45976 112.151 6.44531 112.099 6.44531 105.197C6.44531 98.2954 6.45976 98.2437 8.3459 98.2437C9.95076 98.2437 10.2465 98.6045 10.2465 100.562V102.879H23.1705H36.0945V105.197V107.515H23.1705H10.2465V109.833C10.2465 111.79 9.95076 112.151 8.3459 112.151Z" fill="#7D00EB"/>
<path d="M6.44531 126.831V120.65C6.44531 114.572 6.47724 114.469 8.3459 114.469C10.1195 114.469 10.2465 114.726 10.2465 118.332V122.195H14.4278H18.6091V119.105C18.6091 116.323 18.7991 116.014 20.5097 116.014C22.2118 116.014 22.4103 116.329 22.4103 119.024C22.4103 121.937 22.5007 122.042 25.2612 122.307C26.8295 122.458 29.0525 122.472 30.2027 122.338C32.1687 122.107 32.2933 121.865 32.2933 118.281C32.2933 114.73 32.4233 114.469 34.1939 114.469C36.0626 114.469 36.0945 114.572 36.0945 120.65V126.831H21.2699H6.44531Z" fill="#7D00EB"/>
<path d="M6.44531 136.232C6.44531 132.903 6.67338 129.947 6.95239 129.665C7.23064 129.381 8.0859 129.149 8.85298 129.149C10.0351 129.149 10.2465 129.793 10.2465 133.399V137.648H14.4278H18.6091V134.558C18.6091 131.776 18.7991 131.467 20.5097 131.467C22.2202 131.467 22.4103 131.776 22.4103 134.558V137.648H27.3518H32.2933V133.399C32.2933 129.381 32.3967 129.149 34.1939 129.149C36.0725 129.149 36.0945 129.226 36.0945 135.717V142.284H21.2699H6.44531V136.232Z" fill="#7D00EB"/>
<path d="M8.15584 152.678C6.7304 152.362 6.44531 151.786 6.44531 149.223V146.147H21.2699H36.0945V148.079V150.01H26.3384C20.9719 150.01 16.339 150.257 16.0425 150.558C15.746 150.86 19.6939 151.719 24.8157 152.468C35.8771 154.087 36.0945 154.158 36.0945 156.153C36.0945 157.908 36.2412 157.863 24.3109 159.833L15.9483 161.214L26.0214 161.429L36.0945 161.645V163.554V165.463H21.2699H6.44531V162.407C6.44531 159.559 6.61256 159.325 8.91608 158.944C10.2754 158.719 13.4167 158.181 15.8981 157.749C18.3787 157.317 21.6941 156.964 23.2655 156.964C24.8362 156.964 26.3331 156.616 26.5916 156.192C26.85 155.767 26.8805 155.419 26.6592 155.419C25.845 155.419 9.80936 153.043 8.15584 152.678Z" fill="#7D00EB"/>
</svg>
