<svg width="826" height="642" viewBox="0 0 826 642" fill="none" xmlns="http://www.w3.org/2000/svg">
<path fill-rule="evenodd" clip-rule="evenodd" d="M5.40929 110.788C4.58792 124.354 3.91504 156.897 3.91504 183.106V230.756H13.9873H24.0572L25.5816 179.813C27.8554 103.836 27.6188 87.9256 24.2173 87.6234C22.6233 87.4829 18.0732 87.0871 14.1102 86.7451L6.90585 86.1221L5.40929 110.788ZM35.2988 87.7804C34.6236 88.8859 33.3823 121.506 32.54 160.272L31.0087 230.756H40.3059H49.6032L51.1137 200.893C51.942 184.469 52.6265 161.106 52.6311 148.973C52.6358 136.843 53.1184 127.401 53.7054 127.991C54.2901 128.584 59.0559 146.413 64.2927 167.615C69.5319 188.816 75.3928 211.697 77.3163 218.459L80.8129 230.756H90.7459H100.679L102.169 211.433C102.988 200.806 103.665 168.659 103.672 139.995L103.686 87.8811H94.405H85.124V127.307C85.124 148.994 84.4348 167.432 83.5926 168.282C82.7503 169.132 77.4509 151.664 71.8173 129.462C66.186 107.26 61.3924 88.9702 61.1697 88.8156C58.7682 87.1761 36.2223 86.2743 35.2988 87.7804ZM112.125 93.0901C111.347 96.0226 110.695 128.198 110.679 164.588L110.647 230.756H121.088H131.529V201.478V172.201H146.611H161.692V162.832V153.463L151.831 153.43C131.132 153.365 131.06 153.276 132.007 129.134L132.845 107.79L151.91 107.111L170.973 106.429V168.32V230.21L176.194 231.622C179.064 232.398 192.116 233.049 205.197 233.065L228.98 233.098V223.729V214.36H210.086H191.19L192.104 151.706L193.016 89.0522L153.279 88.4057C113.649 87.7593 113.535 87.7733 112.125 93.0901ZM230.497 109.546C229.678 120.173 229.005 147.842 229.003 171.029C228.998 209.198 229.441 213.922 233.681 220.942C245.899 241.172 280.974 239.265 291.383 217.806C293.794 212.836 294.914 195.693 295.773 150.678L296.924 90.2233H286.267H275.608L274.916 150.142C274.267 206.38 273.946 210.264 269.705 213.393C267.22 215.225 263.043 216.087 260.424 215.307C249.618 212.086 249.319 209.952 251.025 148.193L252.625 90.2233H242.307H231.987L230.497 109.546ZM302.291 160.745C301.383 199.532 301.265 231.896 302.026 232.665C302.787 233.433 316.421 234.499 332.322 235.035L361.234 236.005V226.355C361.234 220.382 360.128 216.567 358.334 216.349C348.867 215.194 344.955 214.922 333.971 214.655L321.79 214.36V193.28V172.201H338.164H354.54L353.826 162.246C353.197 153.442 352.443 152.271 347.313 152.107C344.122 152.006 337.598 151.741 332.811 151.521L324.11 151.121V129.764V108.406L343.832 110.064L363.555 111.725V102.492V93.2588L344.412 91.7551C333.885 90.9283 320.472 90.2444 314.607 90.2373L303.943 90.2233L302.291 160.745ZM368.195 124.982C368.195 142.811 367.508 174.957 366.671 196.419L365.146 235.44H374.792C380.096 235.44 384.567 234.386 384.727 233.098C384.887 231.81 385.279 229.702 385.597 228.414C385.915 227.125 386.307 205.343 386.467 180.007C386.627 154.674 387.449 134.643 388.295 135.496C389.14 136.351 395.207 158.923 401.778 185.659L413.725 234.269L425.763 234.976L437.803 235.686V164.125V92.5655H428.522H419.241L419.171 135.311C419.129 160.712 418.28 176.63 417.081 174.543C415.971 172.61 411.25 155.22 406.591 135.896C401.929 116.573 397.579 98.9199 396.922 96.6643C395.957 93.3572 393.068 92.5655 381.961 92.5655H368.195V124.982ZM454.29 98.5709C450.402 101.876 446.151 108.462 444.845 113.21C443.538 117.957 442.464 143.729 442.457 170.479L442.443 219.113L450.228 227.687C457.221 235.393 459.402 236.351 471.69 237.12C487.753 238.127 494.635 235.145 502.12 223.935C506.348 217.6 507.41 212.789 507.41 199.96V183.912H498.452H489.493L488.222 198.052C486.449 217.801 480.319 223.375 467.813 216.621C463.609 214.349 463.326 211.276 463.326 167.954C463.326 116.374 464.576 111.303 477.298 111.303C485.7 111.303 488.848 116.723 488.848 131.193V142.021L498.709 141.3L508.57 140.581L508.338 127.675C507.9 103.412 497.31 92.5655 474.059 92.5655C463.815 92.5655 459.996 93.7249 454.29 98.5709ZM515.645 95.5143C515.158 97.1141 514.148 129.776 513.401 168.102L512.042 237.782H542.21H572.378V228.507V219.234L553.235 218.553C542.706 218.18 534.356 217.082 534.673 216.117C534.991 215.152 535.253 205.401 535.253 194.452V174.543H550.335H565.417V165.174V155.805H550.335H535.253V134.725V113.645H554.976H574.698V104.277V94.9077L553.235 94.6454C541.432 94.5025 528.344 93.9849 524.151 93.4977C519.441 92.9473 516.19 93.7202 515.645 95.5143ZM579.338 166.345V237.782H588.348C599.515 237.782 600.146 235.944 600.188 203.235L600.221 179.227H607.181C620.409 179.227 623.423 185.486 623.423 212.939C623.423 239.628 623.695 240.125 638.224 240.125H645.686L644.853 224.315C644.247 212.829 644.684 209.465 646.447 212.018C647.784 213.95 648.89 217.759 648.911 220.483C648.995 232.063 671.083 244.502 685.404 241.033C704.449 236.422 711.593 226.915 711.593 206.186C711.593 190.31 706.44 179.3 692.947 166.345C676.896 150.936 669.828 139.777 669.828 129.856C669.828 116.294 677.921 110.331 688.543 116.07C691.655 117.751 693.031 120.984 693.031 126.609C693.031 134.697 693.07 134.725 703.736 134.725H714.44L712.823 123.841C711.934 117.854 709.987 110.945 708.5 108.483C698.978 92.7505 671.102 90.1999 657.603 103.827C651.308 110.181 650.211 113.142 649.401 125.968C648.208 144.888 654.064 158.26 670.227 173.522C684.253 186.764 690.69 196.892 690.701 205.732C690.715 215.871 686.766 221.387 679.492 221.387C670.775 221.387 667.508 217.429 667.508 206.865V197.965H656.995C646.182 197.965 645.92 197.726 643.227 185.39C642.419 181.694 639.407 176.555 636.537 173.974L631.314 169.28L637.811 162.722C642.902 157.583 644.414 153.721 644.807 144.86C646.677 102.67 639.76 94.9077 600.295 94.9077H579.338V166.345ZM617.472 115.929C623.126 118.1 623.423 119.086 623.423 135.671C623.423 155.84 620.567 160.49 608.177 160.49H600.221V138.63C600.221 126.605 600.917 116.065 601.768 115.208C603.977 112.975 610.564 113.278 617.472 115.929ZM150.091 275.258V296.338H174.435H198.777L199.378 425.745L199.977 555.152L222.599 555.822L245.222 556.491V426.414V296.338H269.584H293.947V275.258V254.178H222.019H150.091V275.258ZM578.292 269.023C577.262 274.077 567.596 382.735 563.048 440.383C561.728 457.13 558.739 491.385 556.41 516.505C554.08 541.625 552.358 562.431 552.586 562.74C553.133 563.49 596.404 567.987 597.007 567.357C597.267 567.085 600.04 538.639 603.167 504.143C606.297 469.647 609.439 440.835 610.151 440.116C611.98 438.273 657.065 441.725 660.689 443.986C663.109 445.494 662.705 456.521 658.587 501.672C655.784 532.374 653.512 560.829 653.54 564.907L653.586 572.318L671.568 573.922C681.457 574.803 691.639 575.683 694.191 575.878C698.024 576.171 698.943 574.599 699.465 566.863C699.813 561.71 702.131 535.887 704.616 509.479C707.101 483.07 711.825 429.316 715.113 390.026C718.398 350.735 721.923 309.63 722.941 298.68C723.96 287.73 724.477 278.375 724.09 277.893C722.744 276.209 681.286 272.278 679.877 273.7C678.703 274.888 667.902 384.051 667.601 397.8C667.515 401.697 665.884 401.924 648.366 400.47C637.837 399.594 625.607 398.165 621.186 397.294C613.202 395.717 613.151 395.626 613.72 384.084C614.035 377.69 616.46 349.405 619.107 321.226C623.138 278.352 623.409 269.662 620.773 267.976C619.04 266.868 610.836 265.863 602.541 265.746C594.246 265.627 585.629 265.177 583.392 264.746C580.737 264.233 578.965 265.72 578.292 269.023ZM448.787 272.974C421.371 279.961 403.939 299.523 399.358 328.447C397.648 339.233 404.229 488.797 407.656 517.063C412.711 558.766 432.967 577.843 472.607 578.234C505.364 578.56 525.43 568.142 537.906 544.333C542.683 535.217 543.377 530.186 544.126 499.276C544.59 480.138 544.089 463.62 543.012 462.573C541.936 461.524 531.847 461.262 520.596 461.99L500.139 463.314L500.874 492.062C501.545 518.269 501.178 521.393 496.73 527.441C490.456 535.971 476.117 539.524 466.521 534.927C453.518 528.699 452.46 522.799 448.151 432.692C443.745 340.486 444.086 326.428 450.905 319.547C461.075 309.281 483.649 311.972 489.848 324.189C491.554 327.55 493.705 340.048 494.626 351.965L496.301 373.63H507.334C513.399 373.63 523.028 372.984 528.731 372.197L539.096 370.761L538.212 351.703C535.822 300.251 515.134 274.361 474.37 271.803C465.105 271.222 453.594 271.749 448.787 272.974ZM267.143 306.868C266.324 309.627 254.742 558.091 254.15 585.6L253.746 604.338L268.626 605.816C276.81 606.629 305.008 608.057 331.289 608.987L379.07 610.683L380.555 591.271C381.369 580.593 381.534 571.35 380.919 570.73C379.915 569.715 327.458 566.174 308.363 565.83L300.736 565.692L302.126 525.288C302.889 503.066 303.926 482.775 304.432 480.194C305.314 475.685 306.532 475.568 336.053 477.13C352.939 478.025 367.601 478.229 368.636 477.585C369.668 476.938 370.515 467.649 370.515 456.94V437.47L338.229 435.79L305.945 434.113L307.142 411.483C307.801 399.039 309.017 379.896 309.845 368.946L311.349 349.037L334.551 349.646C347.313 349.984 365.195 350.85 374.288 351.576L390.82 352.895L392.49 332.649C393.409 321.512 393.76 311.993 393.265 311.496C390.985 309.192 267.795 304.671 267.143 306.868Z" fill="#7B00EA"/>
<path opacity="0.2" d="M99.6164 610.394C105.278 608.25 109.843 603.166 111.269 597.414L111.861 595.024L112.392 597.02C113.945 602.869 118.56 608.179 123.872 610.233L127.228 611.529L122.549 613.896C117.474 616.462 113.542 621.167 112.635 625.761L112.133 628.299L110.67 624.328C108.811 619.287 104.465 614.872 99.6604 613.145L95.9102 611.798L99.6164 610.394Z" fill="#F3A100"/>
<path opacity="0.2" d="M762.821 47.1442C770.96 44.1173 777.522 36.939 779.572 28.8185L780.423 25.4453L781.186 28.2631C783.419 36.5196 790.052 44.0172 797.688 46.9159L802.512 48.7465L795.786 52.0871C788.491 55.7099 782.84 62.3518 781.535 68.8386L780.813 72.4209L778.71 66.8157C776.038 59.6982 769.79 53.4656 762.884 51.0279L757.493 49.1254L762.821 47.1442Z" fill="#7B00EA"/>
<rect y="260.323" width="127.227" height="277.939" fill="#FDC2FF"/>
<path d="M25.3449 339.628C19.6171 339.628 19.5732 339.472 19.5732 318.57C19.5732 297.669 19.6171 297.512 25.3449 297.512C30.2185 297.512 31.1165 298.605 31.1165 304.532V311.551H70.3637H109.611V318.57V325.59H70.3637H31.1165V332.609C31.1165 338.536 30.2185 339.628 25.3449 339.628Z" fill="#7900E4"/>
<path d="M19.5732 384.084V365.366C19.5732 346.959 19.6702 346.648 25.3449 346.648C30.731 346.648 31.1165 347.427 31.1165 358.347V370.045H43.8142H56.5118V360.686C56.5118 352.263 57.0889 351.327 62.2834 351.327C67.4525 351.327 68.0551 352.279 68.0551 360.441C68.0551 369.264 68.3298 369.58 76.7125 370.385C81.4753 370.841 88.2258 370.883 91.7188 370.476C97.689 369.779 98.0676 369.044 98.0676 358.192C98.0676 347.438 98.4624 346.648 103.839 346.648C109.514 346.648 109.611 346.959 109.611 365.366V384.084H64.5921H19.5732Z" fill="#7900E4"/>
<path d="M19.5732 412.552C19.5732 402.47 20.2658 393.52 21.1131 392.664C21.9581 391.805 24.5553 391.103 26.8848 391.103C30.4747 391.103 31.1165 393.052 31.1165 403.972V416.841H43.8142H56.5118V407.482C56.5118 399.059 57.0889 398.123 62.2834 398.123C67.4779 398.123 68.0551 399.059 68.0551 407.482V416.841H83.0613H98.0676V403.972C98.0676 391.805 98.3816 391.103 103.839 391.103C109.544 391.103 109.611 391.337 109.611 410.992V430.88H64.5921H19.5732V412.552Z" fill="#7900E4"/>
<path d="M24.7677 462.354C20.439 461.4 19.5732 459.654 19.5732 451.893V442.579H64.5921H109.611V448.428V454.278H79.9839C63.6871 454.278 49.6181 455.024 48.7177 455.936C47.8174 456.849 59.8062 459.453 75.3597 461.72C108.951 466.622 109.611 466.838 109.611 472.879C109.611 478.195 110.056 478.057 73.8267 484.023L48.4315 488.204L79.0212 488.857L109.611 489.51V495.292V501.073H64.5921H19.5732V491.819C19.5732 483.195 20.0811 482.484 27.0764 481.33C31.2043 480.649 40.7436 479.021 48.2791 477.713C55.8122 476.405 65.8803 475.336 70.6523 475.336C75.422 475.336 79.9677 474.283 80.7527 472.996C81.5376 471.709 81.63 470.656 80.9581 470.656C78.4856 470.656 29.7891 463.461 24.7677 462.354Z" fill="#7900E4"/>
</svg>
